<?xml version="1.0" encoding="UTF-8" standalone="no"?>
<!DOCTYPE svg PUBLIC "-//W3C//DTD SVG 1.1//EN"
 "http://www.w3.org/Graphics/SVG/1.1/DTD/svg11.dtd">
<!-- Generated by graphviz version 2.42.4 (0)
 -->
<!-- Title: G Pages: 1 -->
<svg width="783pt" height="534pt"
 viewBox="0.00 0.00 783.00 534.00" xmlns="http://www.w3.org/2000/svg" xmlns:xlink="http://www.w3.org/1999/xlink">
<g id="graph0" class="graph" transform="scale(1 1) rotate(0) translate(18 516)">
<title>G</title>
<g id="clust1" class="cluster">
<title>cluster_modules</title>
<path fill="transparent" stroke="#d6dbe1" d="M240,-8C240,-8 727,-8 727,-8 733,-8 739,-14 739,-20 739,-20 739,-478 739,-478 739,-484 733,-490 727,-490 727,-490 240,-490 240,-490 234,-490 228,-484 228,-478 228,-478 228,-20 228,-20 228,-14 234,-8 240,-8"/>
<text text-anchor="middle" x="483.5" y="-476.4" font-family="DejaVu Sans" font-size="12.00">BUSINESS MODULES | public APIs only</text>
</g>
<g id="clust2" class="cluster">
<title>cluster_runtime</title>
<path fill="transparent" stroke="#d6dbe1" d="M20,-251C20,-251 136,-251 136,-251 142,-251 148,-257 148,-263 148,-263 148,-314 148,-314 148,-320 142,-326 136,-326 136,-326 20,-326 20,-326 14,-326 8,-320 8,-314 8,-314 8,-263 8,-263 8,-257 14,-251 20,-251"/>
<text text-anchor="middle" x="78" y="-312.4" font-family="DejaVu Sans" font-size="12.00">GENERIC RUNTIME</text>
</g>
<g id="clust3" class="cluster">
<title>cluster_extensions</title>
<path fill="transparent" stroke="#d6dbe1" d="M27,-334C27,-334 208,-334 208,-334 214,-334 220,-340 220,-346 220,-346 220,-397 220,-397 220,-403 214,-409 208,-409 208,-409 27,-409 27,-409 21,-409 15,-403 15,-397 15,-397 15,-346 15,-346 15,-340 21,-334 27,-334"/>
<text text-anchor="middle" x="117.5" y="-395.4" font-family="DejaVu Sans" font-size="12.00">EXTENSION IMPLEMENTATIONS</text>
</g>
<!-- n0 -->
<g id="04&#45;target&#45;business&#45;dag_conversation" class="node">
<title>n0</title>
<g id="a_04&#45;target&#45;business&#45;dag_conversation"><a xlink:title="crates/modules/conversation">
<path fill="white" stroke="#7d8794" d="M613,-461C613,-461 495,-461 495,-461 489,-461 483,-455 483,-449 483,-449 483,-435 483,-435 483,-429 489,-423 495,-423 495,-423 613,-423 613,-423 619,-423 625,-429 625,-435 625,-435 625,-449 625,-449 625,-455 619,-461 613,-461"/>
<text text-anchor="middle" x="554" y="-445.2" font-family="DejaVu Sans" font-size="11.00">floe&#45;conversation</text>
<text text-anchor="middle" x="554" y="-433.2" font-family="DejaVu Sans" font-size="11.00">modules/conversation</text>
</a>
</g>
</g>
<!-- n1 -->
<g id="04&#45;target&#45;business&#45;dag_experts" class="node">
<title>n1</title>
<g id="a_04&#45;target&#45;business&#45;dag_experts"><a xlink:title="crates/modules/experts">
<path fill="white" stroke="#7d8794" d="M698.5,-380C698.5,-380 609.5,-380 609.5,-380 603.5,-380 597.5,-374 597.5,-368 597.5,-368 597.5,-354 597.5,-354 597.5,-348 603.5,-342 609.5,-342 609.5,-342 698.5,-342 698.5,-342 704.5,-342 710.5,-348 710.5,-354 710.5,-354 710.5,-368 710.5,-368 710.5,-374 704.5,-380 698.5,-380"/>
<text text-anchor="middle" x="654" y="-364.2" font-family="DejaVu Sans" font-size="11.00">floe&#45;experts</text>
<text text-anchor="middle" x="654" y="-352.2" font-family="DejaVu Sans" font-size="11.00">modules/experts</text>
</a>
</g>
</g>
<!-- n0&#45;&gt;n1 -->
<g id="edge18" class="edge">
<title>n0&#45;&gt;n1</title>
<path fill="none" stroke="#6b7280" d="M577.19,-422.68C591.58,-411.31 610.17,-396.62 625.46,-384.54"/>
<polygon fill="#6b7280" stroke="#6b7280" points="627.24,-386.04 630.93,-380.22 624.42,-382.47 627.24,-386.04"/>
</g>
<!-- n2 -->
<g id="04&#45;target&#45;business&#45;dag_context" class="node">
<title>n2</title>
<g id="a_04&#45;target&#45;business&#45;dag_context"><a xlink:title="crates/modules/context">
<path fill="white" stroke="#7d8794" d="M546.5,-297C546.5,-297 457.5,-297 457.5,-297 451.5,-297 445.5,-291 445.5,-285 445.5,-285 445.5,-271 445.5,-271 445.5,-265 451.5,-259 457.5,-259 457.5,-259 546.5,-259 546.5,-259 552.5,-259 558.5,-265 558.5,-271 558.5,-271 558.5,-285 558.5,-285 558.5,-291 552.5,-297 546.5,-297"/>
<text text-anchor="middle" x="502" y="-281.2" font-family="DejaVu Sans" font-size="11.00">floe&#45;context</text>
<text text-anchor="middle" x="502" y="-269.2" font-family="DejaVu Sans" font-size="11.00">modules/context</text>
</a>
</g>
</g>
<!-- n0&#45;&gt;n2 -->
<g id="edge16" class="edge">
<title>n0&#45;&gt;n2</title>
<path fill="none" stroke="#6b7280" d="M548.14,-422.73C538.77,-393.56 520.43,-336.43 509.92,-303.66"/>
<polygon fill="#6b7280" stroke="#6b7280" points="512.08,-302.94 507.92,-297.45 507.74,-304.33 512.08,-302.94"/>
</g>
<!-- n3 -->
<g id="04&#45;target&#45;business&#45;dag_inference" class="node">
<title>n3</title>
<g id="a_04&#45;target&#45;business&#45;dag_inference"><a xlink:title="crates/modules/inference">
<path fill="white" stroke="#7d8794" d="M693,-135C693,-135 595,-135 595,-135 589,-135 583,-129 583,-123 583,-123 583,-109 583,-109 583,-103 589,-97 595,-97 595,-97 693,-97 693,-97 699,-97 705,-103 705,-109 705,-109 705,-123 705,-123 705,-129 699,-135 693,-135"/>
<text text-anchor="middle" x="644" y="-119.2" font-family="DejaVu Sans" font-size="11.00">floe&#45;inference</text>
<text text-anchor="middle" x="644" y="-107.2" font-family="DejaVu Sans" font-size="11.00">modules/inference</text>
</a>
</g>
</g>
<!-- n0&#45;&gt;n3 -->
<g id="edge17" class="edge">
<title>n0&#45;&gt;n3</title>
<path fill="none" stroke="#6b7280" d="M625.36,-427.24C670.35,-418.57 720,-409 720,-409 720,-409 720,-334 720,-334 720,-334 685,-178 685,-178 685,-178 671.58,-158.04 660.1,-140.95"/>
<polygon fill="#6b7280" stroke="#6b7280" points="661.82,-139.43 656.3,-135.3 658.04,-141.97 661.82,-139.43"/>
</g>
<!-- n6 -->
<g id="04&#45;target&#45;business&#45;dag_knowledge" class="node">
<title>n6</title>
<g id="a_04&#45;target&#45;business&#45;dag_knowledge"><a xlink:title="crates/modules/knowledge">
<path fill="white" stroke="#7d8794" d="M658.5,-216C658.5,-216 553.5,-216 553.5,-216 547.5,-216 541.5,-210 541.5,-204 541.5,-204 541.5,-190 541.5,-190 541.5,-184 547.5,-178 553.5,-178 553.5,-178 658.5,-178 658.5,-178 664.5,-178 670.5,-184 670.5,-190 670.5,-190 670.5,-204 670.5,-204 670.5,-210 664.5,-216 658.5,-216"/>
<text text-anchor="middle" x="606" y="-200.2" font-family="DejaVu Sans" font-size="11.00">floe&#45;knowledge</text>
<text text-anchor="middle" x="606" y="-188.2" font-family="DejaVu Sans" font-size="11.00">modules/knowledge</text>
</a>
</g>
</g>
<!-- n0&#45;&gt;n6 -->
<g id="edge19" class="edge">
<title>n0&#45;&gt;n6</title>
<path fill="none" stroke="#6b7280" d="M557.91,-422.74C567.13,-379.62 590.28,-271.48 600.73,-222.63"/>
<polygon fill="#6b7280" stroke="#6b7280" points="602.98,-222.98 602.12,-216.14 598.53,-222.02 602.98,-222.98"/>
</g>
<!-- n7 -->
<g id="04&#45;target&#45;business&#45;dag_actions" class="node">
<title>n7</title>
<g id="a_04&#45;target&#45;business&#45;dag_actions"><a xlink:title="crates/modules/actions">
<path fill="white" stroke="#7d8794" d="M345.5,-297C345.5,-297 258.5,-297 258.5,-297 252.5,-297 246.5,-291 246.5,-285 246.5,-285 246.5,-271 246.5,-271 246.5,-265 252.5,-259 258.5,-259 258.5,-259 345.5,-259 345.5,-259 351.5,-259 357.5,-265 357.5,-271 357.5,-271 357.5,-285 357.5,-285 357.5,-291 351.5,-297 345.5,-297"/>
<text text-anchor="middle" x="302" y="-281.2" font-family="DejaVu Sans" font-size="11.00">floe&#45;actions</text>
<text text-anchor="middle" x="302" y="-269.2" font-family="DejaVu Sans" font-size="11.00">modules/actions</text>
</a>
</g>
</g>
<!-- n0&#45;&gt;n7 -->
<g id="edge20" class="edge">
<title>n0&#45;&gt;n7</title>
<path fill="none" stroke="#6b7280" d="M525.58,-422.73C478.86,-392.69 386,-333 335.91,-300.8"/>
<polygon fill="#6b7280" stroke="#6b7280" points="337.01,-298.8 330.31,-297.2 334.55,-302.63 337.01,-298.8"/>
</g>
<!-- n9 -->
<g id="04&#45;target&#45;business&#45;dag_agent_runtime" class="node">
<title>n9</title>
<g id="a_04&#45;target&#45;business&#45;dag_agent_runtime"><a xlink:title="crates/runtime/agent">
<path fill="white" stroke="#7d8794" d="M127.5,-297C127.5,-297 28.5,-297 28.5,-297 22.5,-297 16.5,-291 16.5,-285 16.5,-285 16.5,-271 16.5,-271 16.5,-265 22.5,-259 28.5,-259 28.5,-259 127.5,-259 127.5,-259 133.5,-259 139.5,-265 139.5,-271 139.5,-271 139.5,-285 139.5,-285 139.5,-291 133.5,-297 127.5,-297"/>
<text text-anchor="middle" x="78" y="-281.2" font-family="DejaVu Sans" font-size="11.00">floe&#45;agent&#45;runtime</text>
<text text-anchor="middle" x="78" y="-269.2" font-family="DejaVu Sans" font-size="11.00">runtime/agent</text>
</a>
</g>
</g>
<!-- n0&#45;&gt;n9 -->
<g id="edge15" class="edge">
<title>n0&#45;&gt;n9</title>
<path fill="none" stroke="#6b7280" d="M482.73,-436.8C335.42,-428.12 11,-409 11,-409 11,-409 11,-334 11,-334 11,-334 32.32,-316.5 50.91,-301.24"/>
<polygon fill="#6b7280" stroke="#6b7280" points="52.48,-302.89 56.06,-297.01 49.59,-299.37 52.48,-302.89"/>
</g>
<!-- n1&#45;&gt;n2 -->
<g id="edge12" class="edge">
<title>n1&#45;&gt;n2</title>
<path fill="none" stroke="#6b7280" d="M619.89,-341.82C596.81,-329.52 566.24,-313.23 542.01,-300.32"/>
<polygon fill="#6b7280" stroke="#6b7280" points="542.8,-298.17 536,-297.12 540.66,-302.18 542.8,-298.17"/>
</g>
<!-- n1&#45;&gt;n3 -->
<g id="edge13" class="edge">
<title>n1&#45;&gt;n3</title>
<path fill="none" stroke="#6b7280" d="M657.29,-341.76C664.29,-303.01 680,-216 680,-216 680,-216 680,-178 680,-178 680,-178 668.22,-158.04 658.14,-140.95"/>
<polygon fill="#6b7280" stroke="#6b7280" points="660.06,-139.74 654.8,-135.3 656.15,-142.06 660.06,-139.74"/>
</g>
<!-- n5 -->
<g id="04&#45;target&#45;business&#45;dag_access" class="node">
<title>n5</title>
<g id="a_04&#45;target&#45;business&#45;dag_access"><a xlink:title="crates/modules/access">
<path fill="white" stroke="#7d8794" d="M588,-54C588,-54 504,-54 504,-54 498,-54 492,-48 492,-42 492,-42 492,-28 492,-28 492,-22 498,-16 504,-16 504,-16 588,-16 588,-16 594,-16 600,-22 600,-28 600,-28 600,-42 600,-42 600,-48 594,-54 588,-54"/>
<text text-anchor="middle" x="546" y="-38.2" font-family="DejaVu Sans" font-size="11.00">floe&#45;access</text>
<text text-anchor="middle" x="546" y="-26.2" font-family="DejaVu Sans" font-size="11.00">modules/access</text>
</a>
</g>
</g>
<!-- n1&#45;&gt;n5 -->
<g id="edge14" class="edge">
<title>n1&#45;&gt;n5</title>
<path fill="none" stroke="#6b7280" d="M663.63,-341.81C667.91,-333.72 672,-326 672,-326 672,-326 714,-135 714,-135 714,-135 714,-97 714,-97 714,-97 650.98,-74.12 602.13,-56.38"/>
<polygon fill="#6b7280" stroke="#6b7280" points="602.84,-54.22 595.95,-54.14 601.28,-58.49 602.84,-54.22"/>
</g>
<!-- n4 -->
<g id="04&#45;target&#45;business&#45;dag_connections" class="node">
<title>n4</title>
<g id="a_04&#45;target&#45;business&#45;dag_connections"><a xlink:title="crates/modules/connections">
<path fill="white" stroke="#7d8794" d="M490.5,-216C490.5,-216 377.5,-216 377.5,-216 371.5,-216 365.5,-210 365.5,-204 365.5,-204 365.5,-190 365.5,-190 365.5,-184 371.5,-178 377.5,-178 377.5,-178 490.5,-178 490.5,-178 496.5,-178 502.5,-184 502.5,-190 502.5,-190 502.5,-204 502.5,-204 502.5,-210 496.5,-216 490.5,-216"/>
<text text-anchor="middle" x="434" y="-200.2" font-family="DejaVu Sans" font-size="11.00">floe&#45;connections</text>
<text text-anchor="middle" x="434" y="-188.2" font-family="DejaVu Sans" font-size="11.00">modules/connections</text>
</a>
</g>
</g>
<!-- n2&#45;&gt;n4 -->
<g id="edge6" class="edge">
<title>n2&#45;&gt;n4</title>
<path fill="none" stroke="#6b7280" d="M486.23,-258.68C476.62,-247.51 464.24,-233.14 453.95,-221.18"/>
<polygon fill="#6b7280" stroke="#6b7280" points="455.65,-219.67 449.69,-216.22 452.2,-222.63 455.65,-219.67"/>
</g>
<!-- n2&#45;&gt;n5 -->
<g id="edge5" class="edge">
<title>n2&#45;&gt;n5</title>
<path fill="none" stroke="#6b7280" d="M505.31,-258.89C513.1,-216.23 532.6,-109.4 541.47,-60.78"/>
<polygon fill="#6b7280" stroke="#6b7280" points="543.72,-61.13 542.65,-54.32 539.25,-60.31 543.72,-61.13"/>
</g>
<!-- n2&#45;&gt;n6 -->
<g id="edge7" class="edge">
<title>n2&#45;&gt;n6</title>
<path fill="none" stroke="#6b7280" d="M525.86,-258.88C541.05,-247.33 560.83,-232.31 576.94,-220.07"/>
<polygon fill="#6b7280" stroke="#6b7280" points="578.45,-221.78 582.25,-216.04 575.7,-218.16 578.45,-221.78"/>
</g>
<!-- n8 -->
<g id="04&#45;target&#45;business&#45;dag_day" class="node">
<title>n8</title>
<g id="a_04&#45;target&#45;business&#45;dag_day"><a xlink:title="crates/modules/day">
<path fill="white" stroke="#7d8794" d="M335.5,-216C335.5,-216 268.5,-216 268.5,-216 262.5,-216 256.5,-210 256.5,-204 256.5,-204 256.5,-190 256.5,-190 256.5,-184 262.5,-178 268.5,-178 268.5,-178 335.5,-178 335.5,-178 341.5,-178 347.5,-184 347.5,-190 347.5,-190 347.5,-204 347.5,-204 347.5,-210 341.5,-216 335.5,-216"/>
<text text-anchor="middle" x="302" y="-200.2" font-family="DejaVu Sans" font-size="11.00">floe&#45;day</text>
<text text-anchor="middle" x="302" y="-188.2" font-family="DejaVu Sans" font-size="11.00">modules/day</text>
</a>
</g>
</g>
<!-- n2&#45;&gt;n8 -->
<g id="edge8" class="edge">
<title>n2&#45;&gt;n8</title>
<path fill="none" stroke="#6b7280" d="M456.37,-258.97C425.89,-246.94 385.73,-231.07 354.01,-218.54"/>
<polygon fill="#6b7280" stroke="#6b7280" points="354.66,-216.36 347.78,-216.08 352.99,-220.59 354.66,-216.36"/>
</g>
<!-- n3&#45;&gt;n5 -->
<g id="edge2" class="edge">
<title>n3&#45;&gt;n5</title>
<path fill="none" stroke="#6b7280" d="M621.27,-96.68C607.17,-85.31 588.95,-70.62 573.97,-58.54"/>
<polygon fill="#6b7280" stroke="#6b7280" points="575.09,-56.53 568.61,-54.22 572.24,-60.07 575.09,-56.53"/>
</g>
<!-- n4&#45;&gt;n5 -->
<g id="edge1" class="edge">
<title>n4&#45;&gt;n5</title>
<path fill="none" stroke="#6b7280" d="M446.63,-177.96C466.96,-148.91 506.96,-91.78 529.51,-59.55"/>
<polygon fill="#6b7280" stroke="#6b7280" points="531.38,-60.85 533.24,-54.22 527.65,-58.24 531.38,-60.85"/>
</g>
<!-- n6&#45;&gt;n3 -->
<g id="edge4" class="edge">
<title>n6&#45;&gt;n3</title>
<path fill="none" stroke="#6b7280" d="M614.81,-177.68C620.04,-166.81 626.73,-152.9 632.38,-141.15"/>
<polygon fill="#6b7280" stroke="#6b7280" points="634.47,-142.07 635.23,-135.22 630.37,-140.09 634.47,-142.07"/>
</g>
<!-- n6&#45;&gt;n5 -->
<g id="edge3" class="edge">
<title>n6&#45;&gt;n5</title>
<path fill="none" stroke="#6b7280" d="M596.4,-177.7C586.97,-159.73 574,-135 574,-135 574,-135 561.22,-89.83 552.93,-60.51"/>
<polygon fill="#6b7280" stroke="#6b7280" points="555.09,-59.79 551.14,-54.16 550.72,-61.03 555.09,-59.79"/>
</g>
<!-- n7&#45;&gt;n4 -->
<g id="edge10" class="edge">
<title>n7&#45;&gt;n4</title>
<path fill="none" stroke="#6b7280" d="M332.28,-258.88C351.9,-247.13 377.55,-231.79 398.18,-219.44"/>
<polygon fill="#6b7280" stroke="#6b7280" points="399.45,-221.33 403.86,-216.04 397.11,-217.43 399.45,-221.33"/>
</g>
<!-- n7&#45;&gt;n5 -->
<g id="edge9" class="edge">
<title>n7&#45;&gt;n5</title>
<path fill="none" stroke="#6b7280" d="M285.8,-258.7C269.89,-240.73 248,-216 248,-216 248,-216 248,-178 248,-178 248,-178 418.95,-96.54 501.9,-57.02"/>
<polygon fill="#6b7280" stroke="#6b7280" points="503.07,-58.98 507.96,-54.13 501.11,-54.87 503.07,-58.98"/>
</g>
<!-- n7&#45;&gt;n8 -->
<g id="edge11" class="edge">
<title>n7&#45;&gt;n8</title>
<path fill="none" stroke="#6b7280" d="M302,-258.68C302,-248.01 302,-234.41 302,-222.8"/>
<polygon fill="#6b7280" stroke="#6b7280" points="304.28,-222.72 302,-216.22 299.73,-222.72 304.28,-222.72"/>
</g>
<!-- n10 -->
<g id="04&#45;target&#45;business&#45;dag_builtin" class="node">
<title>n10</title>
<g id="a_04&#45;target&#45;business&#45;dag_builtin"><a xlink:title="crates/experts/builtin">
<path fill="white" stroke="#7d8794" d="M200,-380C200,-380 100,-380 100,-380 94,-380 88,-374 88,-368 88,-368 88,-354 88,-354 88,-348 94,-342 100,-342 100,-342 200,-342 200,-342 206,-342 212,-348 212,-354 212,-354 212,-368 212,-368 212,-374 206,-380 200,-380"/>
<text text-anchor="middle" x="150" y="-364.2" font-family="DejaVu Sans" font-size="11.00">floe&#45;experts&#45;builtin</text>
<text text-anchor="middle" x="150" y="-352.2" font-family="DejaVu Sans" font-size="11.00">experts/builtin</text>
</a>
</g>
</g>
<!-- n10&#45;&gt;n7 -->
<g id="edge22" class="edge">
<title>n10&#45;&gt;n7</title>
<path fill="none" stroke="#6b7280" d="M184.11,-341.82C207.19,-329.52 237.76,-313.23 261.99,-300.32"/>
<polygon fill="#6b7280" stroke="#6b7280" points="263.34,-302.18 268,-297.12 261.2,-298.17 263.34,-302.18"/>
</g>
<!-- n10&#45;&gt;n8 -->
<g id="edge23" class="edge">
<title>n10&#45;&gt;n8</title>
<path fill="none" stroke="#6b7280" d="M164.93,-341.51C190.03,-310.41 238,-251 238,-251 238,-251 257.27,-235.04 274.66,-220.64"/>
<polygon fill="#6b7280" stroke="#6b7280" points="276.42,-222.14 279.97,-216.24 273.52,-218.63 276.42,-222.14"/>
</g>
<!-- n10&#45;&gt;n9 -->
<g id="edge21" class="edge">
<title>n10&#45;&gt;n9</title>
<path fill="none" stroke="#6b7280" d="M133.66,-341.62C123.28,-329.94 109.75,-314.72 98.63,-302.21"/>
<polygon fill="#6b7280" stroke="#6b7280" points="100.04,-300.38 94.03,-297.03 96.64,-303.4 100.04,-300.38"/>
</g>
</g>
</svg>
