<svg xmlns="http://www.w3.org/2000/svg" width="768" height="768" viewBox="0 0 768 768" role="img" aria-labelledby="mascot-title mascot-description">
  <title id="mascot-title">Floe mascot</title>
  <desc id="mascot-description">A soft lavender floating character with a rounded asymmetric body and two dark oval eyes.</desc>
  <defs>
    <radialGradient id="body-gradient" cx="0" cy="0" r="1" gradientUnits="userSpaceOnUse" gradientTransform="translate(315 293) rotate(49) scale(421 405)">
      <stop offset="0" stop-color="#f2eaff"/>
      <stop offset="0.42" stop-color="#dfd0fd"/>
      <stop offset="0.76" stop-color="#cdbaf6"/>
      <stop offset="1" stop-color="#baa5ee"/>
    </radialGradient>
    <radialGradient id="eye-gradient" cx="0" cy="0" r="1" gradientUnits="userSpaceOnUse" gradientTransform="translate(236 394) rotate(68) scale(60 46)">
      <stop offset="0" stop-color="#3b306d"/>
      <stop offset="0.58" stop-color="#292151"/>
      <stop offset="1" stop-color="#1b1639"/>
    </radialGradient>
  </defs>
  <g id="mascot">
    <path id="mascot.body" d="M 445 110 C 478 109 519 108 530 128 C 541 148 526 162 523 179 C 519 199 530 211 554 222 C 607 248 640 311 640 389 C 640 538 528 658 383 658 C 240 658 126 543 126 399 C 126 292 184 207 272 156 C 334 120 392 111 445 110 Z" fill="url(#body-gradient)"/>
    <g id="mascot.eyes">
      <ellipse id="mascot.eye-left" cx="246" cy="412" rx="27" ry="40" fill="url(#eye-gradient)"/>
      <ellipse id="mascot.eye-right" cx="435" cy="412" rx="27" ry="40" fill="url(#eye-gradient)"/>
    </g>
  </g>
</svg>
